<svg width="22" height="20" viewBox="0 0 22 20" fill="none" xmlns="http://www.w3.org/2000/svg">
<g id="maps_ugc">
<mask id="mask0_2027_40" style="mask-type:alpha" maskUnits="userSpaceOnUse" x="0" y="0" width="22" height="20">
<rect id="Bounding box" x="0.584473" width="21.4154" height="20" fill="#D9D9D9"/>
</mask>
<g mask="url(#mask0_2027_40)">
<path id="maps_ugc_2" d="M1.47705 20.4029L3.21705 14.2125C2.93448 13.5811 2.72256 12.9343 2.58128 12.2722C2.44 11.61 2.36936 10.9324 2.36936 10.2395C2.36936 8.96135 2.60359 7.76022 3.07205 6.63608C3.54051 5.51195 4.17628 4.5341 4.97935 3.70255C5.78243 2.871 6.72679 2.21268 7.81243 1.72761C8.89807 1.24254 10.0581 1 11.2924 1C12.5268 1 13.6868 1.24254 14.7724 1.72761C15.8581 2.21268 16.8024 2.871 17.6055 3.70255C18.4086 4.5341 19.0443 5.51195 19.5128 6.63608C19.9813 7.76022 20.2155 8.96135 20.2155 10.2395C20.2155 11.5176 19.9813 12.7187 19.5128 13.8429C19.0443 14.967 18.4086 15.9449 17.6055 16.7764C16.8024 17.608 15.8581 18.2663 14.7724 18.7514C13.6868 19.2364 12.5268 19.479 11.2924 19.479C10.6232 19.479 9.96883 19.4058 9.32935 19.2595C8.68986 19.1132 8.06525 18.8938 7.4555 18.6012L1.47705 20.4029ZM4.10935 17.6773L6.96474 16.7995C7.17294 16.7379 7.38486 16.7148 7.6005 16.7302C7.81614 16.7456 8.02063 16.7995 8.21396 16.8919C8.68986 17.1383 9.18807 17.3231 9.70858 17.4463C10.2291 17.5695 10.757 17.6311 11.2924 17.6311C13.2852 17.6311 14.9732 16.915 16.3563 15.4829C17.7393 14.0508 18.4309 12.303 18.4309 10.2395C18.4309 8.176 17.7393 6.4282 16.3563 4.99608C14.9732 3.56396 13.2852 2.8479 11.2924 2.8479C9.2996 2.8479 7.61166 3.56396 6.22858 4.99608C4.84551 6.4282 4.15397 8.176 4.15397 10.2395C4.15397 10.7939 4.21346 11.3405 4.33243 11.8795C4.45141 12.4185 4.62987 12.9343 4.86781 13.4271C4.97192 13.6273 5.02769 13.839 5.03512 14.0623C5.04256 14.2856 5.01653 14.505 4.95705 14.7206L4.10935 17.6773Z" fill="#343434"/>
</g>
</g>
</svg>
