<svg width="20" height="20" viewBox="0 0 20 20" fill="none" xmlns="http://www.w3.org/2000/svg">
<g id="thumb_up">
<mask id="mask0_2027_44" style="mask-type:alpha" maskUnits="userSpaceOnUse" x="0" y="0" width="20" height="20">
<rect id="Bounding box" width="20" height="20" fill="#D9D9D9"/>
</mask>
<g mask="url(#mask0_2027_44)">
<path id="thumb_up_2" d="M14.4762 19H4.52381V7.3L10.8571 1L11.9881 2.125C12.0937 2.23 12.1804 2.3725 12.2482 2.5525C12.3161 2.7325 12.35 2.905 12.35 3.07V3.385L11.3548 7.3H17.1905C17.673 7.3 18.0952 7.48 18.4571 7.84C18.819 8.2 19 8.62 19 9.1V10.9C19 11.005 18.9849 11.1175 18.9548 11.2375C18.9246 11.3575 18.8944 11.47 18.8643 11.575L16.15 17.92C16.0143 18.22 15.7881 18.475 15.4714 18.685C15.1548 18.895 14.823 19 14.4762 19ZM6.33333 17.2H14.4762L17.1905 10.9V9.1H9.04762L10.269 4.15L6.33333 8.065V17.2ZM4.52381 7.3V9.1H1.80952V17.2H4.52381V19H0V7.3H4.52381Z" fill="#343434"/>
</g>
</g>
</svg>
