<?xml version="1.0" standalone="no"?>
<!DOCTYPE svg PUBLIC "-//W3C//DTD SVG 20010904//EN"
 "http://www.w3.org/TR/2001/REC-SVG-20010904/DTD/svg10.dtd">
<svg version="1.0" xmlns="http://www.w3.org/2000/svg"
 width="300.000000pt" height="300.000000pt" viewBox="0 0 300.000000 300.000000"
 preserveAspectRatio="xMidYMid meet">
<metadata>
Created by potrace 1.16, written by Peter Selinger 2001-2019
</metadata>
<g transform="translate(0.000000,300.000000) scale(0.100000,-0.100000)"
fill="#000000" stroke="none">
<path d="M310 1400 l0 -550 150 0 150 0 0 55 0 55 -80 0 -80 0 0 440 0 440 80
0 80 0 0 55 0 55 -150 0 -150 0 0 -550z"/>
<path d="M2440 1895 l0 -55 75 0 75 0 0 -440 0 -440 -75 0 -75 0 0 -55 0 -55
145 0 145 0 0 550 0 550 -145 0 -145 0 0 -55z"/>
<path d="M860 1410 l0 -431 83 3 82 3 5 271 5 272 190 -274 189 -274 73 0 73
0 0 430 0 431 -82 -3 -83 -3 -5 -274 -5 -275 -164 240 c-236 343 -209 314
-292 314 l-69 0 0 -430z m341 128 l194 -283 3 283 2 282 75 0 75 0 0 -415 0
-416 -67 3 -68 3 -195 282 -195 282 -3 -284 -2 -285 -75 0 -75 0 0 415 0 415
68 0 68 0 195 -282z"/>
<path d="M1700 1410 l0 -430 270 0 271 0 -3 73 -3 72 -182 3 -183 2 -2 353 -3
352 -82 3 -83 3 0 -431z m160 60 l0 -350 185 0 185 0 0 -65 0 -65 -260 0 -260
0 0 415 0 415 75 0 75 0 0 -350z"/>
</g>
</svg>
